<svg width="46" height="59" viewBox="0 0 46 59" fill="none" xmlns="http://www.w3.org/2000/svg">
<path d="M6.13126 56.4845L3.54736 3.51455L45.7511 0.5V58.4225L6.13126 56.4845Z" fill="url(#paint0_linear)"/>
<path d="M17.5551 17.4521C17.0444 17.4521 16.5829 17.342 16.1705 17.1217C15.7629 16.9015 15.4419 16.5993 15.2077 16.2151C14.9781 15.8262 14.8633 15.3905 14.8633 14.9079C14.8633 14.4253 14.9781 13.9918 15.2077 13.6076C15.4419 13.2187 15.7629 12.9142 16.1705 12.694C16.5829 12.4738 17.0444 12.3636 17.5551 12.3636C18.0658 12.3636 18.525 12.4738 18.9326 12.694C19.3403 12.9142 19.6612 13.2187 19.8955 13.6076C20.1298 13.9918 20.2469 14.4253 20.2469 14.9079C20.2469 15.3905 20.1298 15.8262 19.8955 16.2151C19.6612 16.5993 19.3403 16.9015 18.9326 17.1217C18.525 17.342 18.0658 17.4521 17.5551 17.4521ZM17.5551 16.4822C17.8456 16.4822 18.108 16.4166 18.3422 16.2854C18.5765 16.1495 18.7593 15.9621 18.8904 15.7231C19.0263 15.4842 19.0943 15.2124 19.0943 14.9079C19.0943 14.6033 19.0263 14.3315 18.8904 14.0926C18.7593 13.8536 18.5765 13.6686 18.3422 13.5374C18.108 13.4015 17.8456 13.3335 17.5551 13.3335C17.2646 13.3335 17.0022 13.4015 16.7679 13.5374C16.5337 13.6686 16.3486 13.8536 16.2127 14.0926C16.0815 14.3315 16.0159 14.6033 16.0159 14.9079C16.0159 15.2124 16.0815 15.4842 16.2127 15.7231C16.3486 15.9621 16.5337 16.1495 16.7679 16.2854C17.0022 16.4166 17.2646 16.4822 17.5551 16.4822Z" fill="white"/>
<path d="M23.2602 13.5303C23.6116 13.5303 23.9303 13.6123 24.2161 13.7763C24.5066 13.9356 24.7338 14.1629 24.8978 14.4581C25.0618 14.7486 25.1438 15.0883 25.1438 15.4771C25.1438 15.866 25.0618 16.2081 24.8978 16.5033C24.7338 16.7938 24.5066 17.021 24.2161 17.185C23.9303 17.3443 23.6116 17.424 23.2602 17.424C22.7776 17.424 22.3981 17.2717 22.1217 16.9671V18.7312H21.0253V13.5866H22.0725V14.0223C22.3442 13.6943 22.7401 13.5303 23.2602 13.5303ZM23.0705 16.5243C23.3516 16.5243 23.5812 16.4306 23.7592 16.2432C23.942 16.0511 24.0333 15.7958 24.0333 15.4771C24.0333 15.1585 23.942 14.9055 23.7592 14.7181C23.5812 14.526 23.3516 14.4299 23.0705 14.4299C22.7893 14.4299 22.5574 14.526 22.3747 14.7181C22.1966 14.9055 22.1076 15.1585 22.1076 15.4771C22.1076 15.7958 22.1966 16.0511 22.3747 16.2432C22.5574 16.4306 22.7893 16.5243 23.0705 16.5243Z" fill="white"/>
<path d="M29.5816 15.4912C29.5816 15.5053 29.5746 15.6037 29.5605 15.7864H26.7001C26.7516 16.0207 26.8734 16.2057 27.0655 16.3416C27.2576 16.4775 27.4966 16.5454 27.7824 16.5454C27.9792 16.5454 28.1525 16.5173 28.3025 16.4611C28.4571 16.4002 28.6 16.3065 28.7312 16.18L29.3145 16.8125C28.9585 17.2201 28.4384 17.424 27.7543 17.424C27.3279 17.424 26.9507 17.342 26.6227 17.178C26.2948 17.0093 26.0417 16.7774 25.8637 16.4822C25.6856 16.187 25.5966 15.852 25.5966 15.4771C25.5966 15.107 25.6833 14.7743 25.8567 14.4791C26.0347 14.1793 26.276 13.9473 26.5806 13.7833C26.8898 13.6147 27.2342 13.5303 27.6137 13.5303C27.9839 13.5303 28.3189 13.61 28.6188 13.7693C28.9186 13.9286 29.1529 14.1582 29.3216 14.4581C29.4949 14.7532 29.5816 15.0976 29.5816 15.4912ZM27.6207 14.3597C27.3724 14.3597 27.1639 14.4299 26.9952 14.5705C26.8266 14.7111 26.7235 14.9032 26.686 15.1468H28.5485C28.511 14.9079 28.4079 14.7181 28.2392 14.5775C28.0706 14.4323 27.8644 14.3597 27.6207 14.3597Z" fill="white"/>
<path d="M32.6098 13.5303C33.0783 13.5303 33.4555 13.6709 33.7413 13.952C34.0318 14.2332 34.1771 14.6502 34.1771 15.203V17.3677H33.0807V15.3717C33.0807 15.0719 33.0151 14.8493 32.8839 14.704C32.7527 14.5541 32.5629 14.4791 32.3146 14.4791C32.0382 14.4791 31.8179 14.5658 31.654 14.7392C31.49 14.9079 31.408 15.1609 31.408 15.4982V17.3677H30.3116V13.5866H31.3588V14.0293C31.504 13.87 31.6844 13.7482 31.8999 13.6639C32.1155 13.5748 32.3521 13.5303 32.6098 13.5303Z" fill="white"/>
<path d="M26.8621 32.2697L33.0441 32.116C33.1977 26.1237 30.0875 23.166 24.6735 23.166C19.2595 23.166 16.2261 26.2389 16.2261 30.8484C16.2261 38.8766 26.5934 39.0302 26.5934 43.4092C26.5934 44.6384 26.0174 45.3683 24.7503 45.3683C23.0992 45.3683 22.4465 44.2927 22.5233 41.2966H16.0341C15.5349 48.7101 19.8738 50.4003 24.8271 50.4003C29.6268 50.4003 33.3897 48.1724 33.3897 43.3324C33.3897 34.7281 22.8688 34.9585 22.8688 30.6948C22.8688 28.9662 24.0975 28.7357 24.8271 28.7357C25.595 28.7357 26.9773 29.043 26.8621 32.2697Z" fill="white"/>
<path d="M5.05454 56.4845L2.47064 3.51453H0.532715L2.47064 56.4845H5.05454Z" fill="#B57EE5"/>
<path d="M36.9917 8.14404L37.53 0.93065L42.5902 0.5V8.14404L40.0454 5.84222L36.9917 8.14404Z" fill="white"/>
<defs>
<linearGradient id="paint0_linear" x1="24.6492" y1="0.5" x2="24.6492" y2="58.4225" gradientUnits="userSpaceOnUse">
<stop stop-color="#F1618C"/>
<stop offset="1" stop-color="#FF004C"/>
</linearGradient>
</defs>
</svg>
